<?xml version="1.0" encoding="UTF-8"?>
<svg id="_图层_1" data-name="图层 1" xmlns="http://www.w3.org/2000/svg" xmlns:xlink="http://www.w3.org/1999/xlink" viewBox="0 0 1501.18 474.15">
  <defs>
    <style>
      .cls-1 {
        fill: url(#linear-gradient);
      }

      .cls-1, .cls-2, .cls-3, .cls-4, .cls-5 {
        stroke-width: 0px;
      }

      .cls-2 {
        fill: url(#linear-gradient-2);
      }

      .cls-3 {
        fill: url(#linear-gradient-3);
      }

      .cls-4 {
        fill: #ee780e;
      }

      .cls-5 {
        fill: #fff;
      }
    </style>
    <linearGradient id="linear-gradient" x1="201.73" y1="51.32" x2="72.98" y2="384.57" gradientUnits="userSpaceOnUse">
      <stop offset="0" stop-color="#eb6101"/>
      <stop offset=".19" stop-color="#f29344"/>
      <stop offset=".67" stop-color="#ee7816"/>
      <stop offset="1" stop-color="#eb6101"/>
    </linearGradient>
    <linearGradient id="linear-gradient-2" x1=".02" y1="337.53" x2="474.16" y2="337.53" gradientUnits="userSpaceOnUse">
      <stop offset="0" stop-color="#676763"/>
      <stop offset=".19" stop-color="#cacac7"/>
      <stop offset="1" stop-color="#45443f"/>
    </linearGradient>
    <linearGradient id="linear-gradient-3" x1="428.23" y1="332.77" x2="266.65" y2="47.48" gradientUnits="userSpaceOnUse">
      <stop offset="0" stop-color="#22ac39"/>
      <stop offset=".19" stop-color="#9dc93b"/>
      <stop offset=".7" stop-color="#57b548"/>
      <stop offset="1" stop-color="#094"/>
    </linearGradient>
  </defs>
  <g>
    <g>
      <path class="cls-5" d="m788.52,283.83h-162.43c-5.35,0-9.68-4.33-9.68-9.68s4.33-9.68,9.68-9.68h162.43c5.34,0,9.68,4.33,9.68,9.68s-4.33,9.68-9.68,9.68Z"/>
      <path class="cls-5" d="m1001.78,292.97h-124.48c-5.34,0-9.68-4.33-9.68-9.68s4.33-9.68,9.68-9.68h124.48c5.34,0,9.68,4.33,9.68,9.68s-4.33,9.68-9.68,9.68Z"/>
      <path class="cls-5" d="m1001.78,322.22h-124.48c-5.34,0-9.68-4.33-9.68-9.68s4.33-9.68,9.68-9.68h124.48c5.34,0,9.68,4.33,9.68,9.68s-4.33,9.68-9.68,9.68Z"/>
      <path class="cls-5" d="m1423.22,303.64h-93.85c-5.34,0-9.68-4.34-9.68-9.68s4.34-9.68,9.68-9.68h93.85c5.34,0,9.68,4.33,9.68,9.68s-4.33,9.68-9.68,9.68Z"/>
      <path class="cls-5" d="m1301.66,303.64h-43.67c-5.34,0-9.68-4.34-9.68-9.68s4.34-9.68,9.68-9.68h43.67c5.34,0,9.68,4.33,9.68,9.68s-4.33,9.68-9.68,9.68Z"/>
      <path class="cls-5" d="m1050.37,290.88c-5.34,0-9.68-4.33-9.68-9.68s4.33-9.68,9.68-9.68c19.94,0,39.86-2.41,59.22-7.16l.91-.22c5.18-1.28,10.43,1.91,11.7,7.1,1.27,5.19-1.91,10.43-7.1,11.7l-.91.22c-20.86,5.12-42.33,7.72-63.83,7.72Z"/>
      <path class="cls-5" d="m1112.8,328.53h-62.43c-5.34,0-9.68-4.33-9.68-9.68s4.33-9.68,9.68-9.68h62.43c5.35,0,9.68,4.33,9.68,9.68s-4.33,9.68-9.68,9.68Z"/>
      <path class="cls-5" d="m1001.78,351.48h-124.48c-5.34,0-9.68-4.33-9.68-9.68s4.33-9.68,9.68-9.68h124.48c5.34,0,9.68,4.33,9.68,9.68s-4.33,9.68-9.68,9.68Z"/>
      <path class="cls-4" d="m1180.06,363.28c-.99,0-2-.15-2.99-.47l-27.18-8.82c-4.9-1.59-8.77-5.46-10.37-10.35-1.59-4.9-.74-10.31,2.29-14.47l20.59-28.4-22.87-7.61c-5.07-1.69-7.81-7.16-6.12-12.24,1.69-5.07,7.16-7.82,12.23-6.13l27.04,9c4.86,1.62,8.7,5.5,10.27,10.38,1.57,4.88.71,10.27-2.3,14.42l-20.58,28.37,22.98,7.46c5.08,1.65,7.87,7.11,6.21,12.19-1.32,4.09-5.12,6.69-9.2,6.69Z"/>
      <path class="cls-5" d="m793.45,438.8h-172.29c-5.34,0-9.68-4.33-9.68-9.67s4.33-9.68,9.68-9.68h172.29c5.34,0,9.68,4.33,9.68,9.68s-4.33,9.67-9.68,9.67Z"/>
      <path class="cls-5" d="m735.14,438.8c-5.34,0-9.68-4.33-9.68-9.67v-154.97c0-5.35,4.33-9.68,9.68-9.68s9.68,4.33,9.68,9.68v154.97c0,5.34-4.33,9.67-9.68,9.67Z"/>
      <path class="cls-5" d="m1081.59,438.8c-5.35,0-9.68-4.33-9.68-9.67v-147.92c0-5.35,4.33-9.68,9.68-9.68s9.68,4.33,9.68,9.68v147.92c0,5.34-4.33,9.67-9.68,9.67Z"/>
      <path class="cls-5" d="m1267.03,438.8h-9.03c-5.34,0-9.68-4.33-9.68-9.67s4.34-9.68,9.68-9.68h9.03c4.21,0,7.63-3.42,7.63-7.63v-137.66c0-5.35,4.33-9.68,9.68-9.68s9.68,4.33,9.68,9.68v137.66c0,14.88-12.1,26.99-26.98,26.99Z"/>
      <path class="cls-5" d="m1376.29,341.03c-5.34,0-9.68-4.33-9.68-9.68v-57.2c0-5.35,4.33-9.68,9.68-9.68s9.68,4.33,9.68,9.68v57.2c0,5.35-4.34,9.68-9.68,9.68Z"/>
      <path class="cls-5" d="m1208.08,438.8c-5.34,0-9.68-4.33-9.68-9.67v-155.59c0-5.35,4.34-9.68,9.68-9.68s9.68,4.33,9.68,9.68v155.59c0,5.34-4.33,9.67-9.68,9.67Z"/>
      <path class="cls-5" d="m1050.37,413.17c-5.34,0-9.68-4.33-9.68-9.68v-53.92c0-5.35,4.33-9.68,9.68-9.68s9.68,4.33,9.68,9.68v53.92c0,5.34-4.33,9.68-9.68,9.68Z"/>
      <path class="cls-5" d="m679.46,438.8c-5.35,0-9.68-4.33-9.68-9.67v-154.97c0-5.35,4.33-9.68,9.68-9.68s9.68,4.33,9.68,9.68v154.97c0,5.34-4.33,9.67-9.68,9.67Z"/>
      <path class="cls-5" d="m632.52,390.39c-5.34,0-9.68-4.33-9.68-9.68v-58.16c0-5.34,4.33-9.68,9.68-9.68s9.68,4.33,9.68,9.68v58.16c0,5.35-4.33,9.68-9.68,9.68Z"/>
      <path class="cls-5" d="m755.6,387.64h-20.46c-5.34,0-9.68-4.33-9.68-9.68s4.33-9.68,9.68-9.68h20.46c9.26,0,16.8-7.54,16.8-16.8v-28.93c0-5.34,4.33-9.68,9.68-9.68s9.68,4.33,9.68,9.68v28.93c0,19.93-16.22,36.16-36.15,36.16Z"/>
      <path class="cls-5" d="m1026.91,438.8c-5.35,0-9.68-4.33-9.68-9.67s4.33-9.68,9.68-9.68c7.6,0,13.79-6.18,13.79-13.79,0-5.35,4.33-9.68,9.68-9.68s9.68,4.33,9.68,9.68c0,18.28-14.87,33.14-33.14,33.14Z"/>
      <path class="cls-5" d="m847,438.8c-5.35,0-9.68-4.33-9.68-9.67v-141c0-2.37-1.93-4.3-4.3-4.3h-11.95c-5.34,0-9.68-4.33-9.68-9.68s4.34-9.68,9.68-9.68h11.95c13.04,0,23.65,10.61,23.65,23.65v141c0,5.34-4.34,9.67-9.68,9.67Z"/>
      <path class="cls-5" d="m1026.91,438.8h-123.59c-19.69,0-35.7-16.01-35.7-35.7v-8.7c0-18.21,14.81-33.02,33.03-33.02h77.79c18.2,0,33.02,14.81,33.02,33.02v9.09c0,5.34-4.33,9.68-9.68,9.68s-9.68-4.33-9.68-9.68v-9.09c0-7.54-6.13-13.67-13.66-13.67h-77.79c-7.54,0-13.67,6.13-13.67,13.67v8.7c0,9.01,7.33,16.34,16.34,16.34h123.59c5.34,0,9.68,4.33,9.68,9.68s-4.33,9.67-9.68,9.67Z"/>
      <path class="cls-5" d="m939.54,290.53c-5.35,0-9.68-4.33-9.68-9.68v-7.31c0-5.35,4.33-9.68,9.68-9.68s9.67,4.33,9.67,9.68v7.31c0,5.35-4.33,9.68-9.67,9.68Z"/>
      <path class="cls-5" d="m1316.74,438.8c-4.82,0-8.99-3.59-9.59-8.5-.65-5.31,3.12-10.14,8.43-10.79,36.82-4.51,81.62-41.67,95.03-78.48h-81.23c-5.34,0-9.68-4.33-9.68-9.68s4.34-9.68,9.68-9.68h82.84c5.87,0,11.42,2.85,14.85,7.63,3.4,4.74,4.31,10.85,2.44,16.35-14.98,44.13-67.12,87.62-111.56,93.07-.4.05-.79.07-1.19.07Z"/>
      <path class="cls-5" d="m1435.85,438.8c-.39,0-.79-.02-1.19-.07-38.2-4.68-84.25-38.79-104.85-77.65-2.5-4.72-.7-10.58,4.02-13.08,4.72-2.51,10.58-.71,13.08,4.02,17.65,33.3,58.07,63.58,90.11,67.5,5.31.65,9.08,5.48,8.43,10.79-.61,4.9-4.78,8.5-9.6,8.5Z"/>
      <path class="cls-5" d="m1257.99,367.11c-4.11,0-7.91-2.63-9.22-6.75-1.61-5.1,1.21-10.54,6.29-12.16l44.87-14.26c5.1-1.61,10.53,1.2,12.15,6.29,1.62,5.1-1.2,10.54-6.29,12.16l-44.87,14.26c-.97.31-1.96.46-2.94.46Z"/>
      <path class="cls-5" d="m1135.48,405.23c-4.6,0-9.16-1.22-13.2-3.59-6.36-3.74-10.85-10.03-12.31-17.26l-6.66-32.89c-1.06-5.24,2.32-10.34,7.56-11.4,5.24-1.07,10.34,2.33,11.4,7.56l6.66,32.89c.52,2.54,2.2,3.86,3.15,4.42.95.56,2.93,1.4,5.4.61l90.76-28.84c5.1-1.61,10.53,1.2,12.16,6.29,1.62,5.1-1.21,10.54-6.29,12.16l-90.75,28.84c-2.57.81-5.23,1.22-7.88,1.22Z"/>
    </g>
    <g>
      <path class="cls-5" d="m638.9,17.06l-83.09,194.81h26.33l25.39-61.31h90.2l25.98,61.31h26.71l-83.46-194.81h-28.04Zm-22.89,113.03h0l36.08-86.88,36.08,86.88h-72.16Z"/>
      <path class="cls-5" d="m821.9,128.71h-23.24c-14.12,0-21.23-6.34-21.23-18.98,0-13.67,11.93-20.48,35.77-20.48,17.19,0,33.78,2.66,49.71,8.18v-21.83c-15.93-4.49-32.52-6.8-49.71-6.8-39.75,0-59.72,13.64-59.72,40.93s15,42.2,45.18,42.2h23.24c14.99,0,22.53,6.35,22.53,19,0,13.66-11.45,20.47-34.32,20.47-17.25,0-33.84-2.75-49.78-8.11v21.74c15.94,4.59,32.52,6.84,49.78,6.84,39.71,0,59.55-13.64,59.55-40.93s-15.85-42.22-47.77-42.22"/>
      <rect class="cls-5" x="889.93" y="68.8" width="25.3" height="143.07"/>
      <rect class="cls-5" x="889.93" y="17.06" width="25.3" height="20.38"/>
      <path class="cls-5" d="m992.48,68.8c-14.82,0-29.94,2.31-45.46,6.82v20.44c15.52-4.5,30.64-6.81,45.46-6.81,25.8,0,38.73,7.7,38.73,23.28v13.51c-10.69-1.85-23.17-2.79-37.48-2.79-38.86,0-58.25,14.74-58.25,44.1s17.93,44.51,53.94,44.51c16,0,29.77-3.17,41.79-9.05v9.05h25.3v-97.33c0-30.49-21.38-45.74-64.03-45.74m38.73,111.41h0c-10.31,7.49-24.24,11.2-41.79,11.2-19.09,0-28.71-8.11-28.71-24.53,0-15.44,10.99-23.13,33.02-23.13,14.93,0,27.37.91,37.48,2.67v33.8Z"/>
      <rect class="cls-5" x="1083.52" y="17.06" width="25.24" height="194.81"/>
      <path class="cls-5" d="m1209.94,68.8c-17.56,0-35.08,6.11-52.48,18.24l.09-18.24h-21.69v143.07h25.32v-103.97c12.99-12.02,26.74-18.18,41.24-18.18,21.3,0,31.91,10.75,31.91,31.96v90.2h25.25v-89.83c0-35.47-16.47-53.24-49.64-53.24"/>
      <path class="cls-5" d="m1311.97,53.99c0-15.79,9.4-23.59,28.15-23.59,12.4,0,23.16,1.81,32.19,5.44V15.47c-9.64-3.67-20.34-5.53-32.01-5.53-35.8,0-53.64,17.33-53.64,51.88v150.34h25.31v-122.91h43.09v-20.45h-43.09v-14.8Z"/>
      <path class="cls-5" d="m1432.84,68.8c-45.63,0-68.4,23.82-68.4,71.48.15,47.58,23.03,71.39,68.4,71.39s68.34-23.81,68.34-71.39-22.79-71.48-68.34-71.48m0,122.6h0c-28.78,0-43.17-17.19-43.17-51.57s14.39-50.58,43.17-50.58,43.1,16.84,43.1,50.58-14.39,51.57-43.1,51.57"/>
    </g>
  </g>
  <g>
    <path class="cls-1" d="m118.56,31.8C5.19,97.26-33.65,242.24,31.78,355.61h0c28.09,48.67,70.89,83.59,119.48,102.44h0c.08-.49-3.95-95.91-28.41-100.47h0c-24.8-4.58-62.3-36.88-38.8-99.93h0c13.36-35.75,29.21-71.77,92.21-163.84h0s33.76-42.19,57.57-55.94h0c46.54-26.82,92.87-22.83,122.34-5.79h0C319.97,11.09,278.72,0,236.88,0h0c-40.22,0-81,10.26-118.32,31.8"/>
    <path class="cls-2" d="m.02,236.67v-.07H.02v.07m0-.07v-.04H.02v.04m0-.04H.02m0,0v-.08H.02v.08m0-.08v-.04H.02v.04m398.55,39.28c8.39,23.77-.8,72.37-67.15,83.56h0c-37.66,6.32-76.79,10.54-188,2.07h0s-53.42-8.11-77.21-21.87h0C19.76,312.68,0,270.69.02,236.67H.02c-.06,81.96,42.43,161.76,118.58,205.68h0c113.34,65.45,258.35,26.63,323.81-86.78h0c28.08-48.65,36.94-103.15,28.93-154.66h0c-.46.17-81.07,51.36-72.76,74.84"/>
    <path class="cls-3" d="m189.99,77.7c.28-.3.56-.64.88-.96h0c-.31.32-.59.66-.88.96m43.84-39.83c-13.88,8.01-31,25.57-42.96,38.88h0c17.19-18.64,62.91-33.38,104.9,17.53h0c24.29,29.41,47.52,61.19,95.81,161.75h0s19.63,50.35,19.63,77.83h0c-.05,53.73-26.63,91.9-56.18,108.88h0c71.17-40.89,119.09-117.7,119.09-205.63h0c-.04-43.1-11.52-83.46-31.61-118.29h0c-20.86-36.21-51.1-66.34-87.3-87.22h0c-14.31-8.07-32.43-13.1-52.57-13.1h0c-21.4,0-45.08,5.68-68.81,19.37"/>
  </g>
</svg>